<mxfile host="app.diagrams.net" modified="2023-06-04T14:12:28.654Z" agent="Mozilla/5.0 (Macintosh; Intel Mac OS X 10.15; rv:109.0) Gecko/20100101 Firefox/113.0" etag="ONgcfkUg-hTlRZu0e7hG" version="21.3.2" type="github">
  <diagram name="第 1 页" id="pW6zHuNh5d_NXqeCp2Is">
    <mxGraphModel dx="1242" dy="660" grid="1" gridSize="10" guides="1" tooltips="1" connect="1" arrows="1" fold="1" page="1" pageScale="1" pageWidth="827" pageHeight="1169" math="0" shadow="0">
      <root>
        <mxCell id="0" />
        <mxCell id="1" parent="0" />
        <mxCell id="4synDfnA7_Phd8wwPtMt-1" value="业务数据" style="rounded=0;whiteSpace=wrap;html=1;" vertex="1" parent="1">
          <mxGeometry x="280" y="190" width="130" height="40" as="geometry" />
        </mxCell>
        <mxCell id="4synDfnA7_Phd8wwPtMt-2" value="任务元数据" style="rounded=0;whiteSpace=wrap;html=1;" vertex="1" parent="1">
          <mxGeometry x="280" y="230" width="130" height="40" as="geometry" />
        </mxCell>
        <mxCell id="4synDfnA7_Phd8wwPtMt-3" value="&lt;div&gt;任务元数据&lt;br&gt;太大的话&lt;br&gt;需要元数据的元数据来管理&lt;br&gt;&lt;/div&gt;" style="rounded=0;whiteSpace=wrap;html=1;" vertex="1" parent="1">
          <mxGeometry x="280" y="270" width="130" height="80" as="geometry" />
        </mxCell>
        <mxCell id="4synDfnA7_Phd8wwPtMt-4" value="。。。&lt;br&gt;无限套娃" style="rounded=0;whiteSpace=wrap;html=1;" vertex="1" parent="1">
          <mxGeometry x="280" y="350" width="130" height="40" as="geometry" />
        </mxCell>
      </root>
    </mxGraphModel>
  </diagram>
</mxfile>
